<svg xmlns="http://www.w3.org/2000/svg" xmlns:xlink="http://www.w3.org/1999/xlink" version="1.1" x="0px" y="0px" viewBox="0 0 468 468" style="enable-background:new 0 0 468 468;" xml:space="preserve"><g><g><path d="M365.56,337.403c44.819,32.391,82.214,36.546,95.44,23.367c4.645-4.628,7-11.69,7-20.989    c0-29.275-22.533-70.644-57.406-105.392c-20.826-20.751-44.167-37.216-65.953-47.061c15.144,32.415,23.497,71.285,23.497,111.384    C368.138,311.748,367.272,324.722,365.56,337.403z"></path><path d="M124.404,186.847c-22.063,9.77-45.793,26.412-66.997,47.541C22.533,269.137,0,310.506,0,339.781    c0,26.072,23.668,30.817,44.855,25.856c17.931-4.199,38.402-14.329,58.334-28.791c-1.665-12.514-2.507-25.302-2.507-38.135    C100.682,258.41,109.117,219.358,124.404,186.847z"></path><g><path d="M335.833,261.816c-4.169-29.08-13.214-55.84-26.39-77.698c-18.431,21.735-45.575,34.574-75.033,34.574     c-29.457,0-56.602-12.839-75.032-34.574c-13.177,21.858-22.222,48.618-26.391,77.698H335.833z"></path><path d="M149.373,393.988c3.902,8.766,8.366,17.025,13.377,24.659C182.372,448.538,207.821,465,234.41,465     c26.589,0,52.038-16.462,71.659-46.352c5.011-7.634,9.476-15.894,13.377-24.659H149.373z"></path><path d="M130.36,298.711c0,22.955,2.929,45.163,8.507,65.623h191.086c5.578-20.46,8.507-42.668,8.507-65.623     c0-2.423-0.044-4.835-0.109-7.241H130.469C130.404,293.876,130.36,296.288,130.36,298.711z"></path></g></g><path d="M347.947,31.961L341.571,3c-2.143,0.463-47.612,10.872-69.404,60.428   c-22.645-14.885-52.867-14.886-75.514,0C174.861,13.872,129.393,3.463,127.249,3l-6.376,28.961   c1.654,0.383,40.128,9.82,53.09,56.061c-5.285,9.69-8.289,20.784-8.289,32.564c0,37.744,30.835,68.451,68.736,68.451   c37.902,0,68.737-30.707,68.737-68.451c0-11.78-3.005-22.875-8.289-32.564C307.819,41.781,346.293,32.344,347.947,31.961z    M209.651,110.321c-6.304,0-11.415-5.106-11.415-11.405c0-6.299,5.111-11.405,11.415-11.405c6.304,0,11.415,5.106,11.415,11.405   C221.066,105.215,215.955,110.321,209.651,110.321z M259.169,110.005c-6.304,0-11.415-5.106-11.415-11.405   c0-6.299,5.111-11.405,11.415-11.405c6.304,0,11.415,5.106,11.415,11.405C270.583,104.899,265.473,110.005,259.169,110.005z"></path></g></svg>