<svg xmlns="http://www.w3.org/2000/svg" data-name="Layer 1" viewBox="0 0 100 100" x="0px" y="0px"><title>Shark</title><path d="M99.22,33.24a1,1,0,0,0-.86-.34c-.6.06-14.47,1.61-19.07,13.18l-7.37-2.61L71.41,42a1,1,0,0,0-1-.66L64.11,42c-7.21-.39-15.34-1.45-16.52-2.55-1.85-1.74-3.38-6.66-1.65-10.73a1,1,0,0,0-1.16-1.36,27.44,27.44,0,0,0-8.29,3.67,17.41,17.41,0,0,0-6.18,9.58,62.09,62.09,0,0,0-26.43,5.1,6.19,6.19,0,0,0-2.94,2,1,1,0,0,0-.39.55,1,1,0,0,0,0,.48,2.4,2.4,0,0,0,0,.28c0,1.65,1.59,3.06,5.13,4.43A57,57,0,0,0,11.34,57c.33.16,8.27,3.86,16.34,3.46A26.59,26.59,0,0,0,41.13,73.18a1,1,0,0,0,.39.08,1,1,0,0,0,1-1.22c-.53-2.36-1.71-8.59-1.37-11.42a83.42,83.42,0,0,0,10.74-.8l7.6,2.88a1,1,0,0,0,1.29-.58l1.68-4.34a85.26,85.26,0,0,0,12.78-4.3,30.87,30.87,0,0,1,3.77.43c1.06,1.69,5.46,8.16,11.93,10a1,1,0,0,0,1.28-1,21.14,21.14,0,0,0-3.86-10.49c2.1-2.5,9.43-11.58,11.1-18.28A1,1,0,0,0,99.22,33.24Zm-87,22a50.23,50.23,0,0,1-5.52-3.41,1,1,0,0,0-.27-.15,13.67,13.67,0,0,1-3.14-1.57c2.06.55,5.48,1.43,9.69,2.4,5.74,1.32,11.18,2.94,12.86,3.45a23.89,23.89,0,0,0,.89,2.54C19.48,58.63,12.28,55.24,12.26,55.24Zm29.53,3.37a3.9,3.9,0,0,1,3.71-2.45A150.5,150.5,0,0,0,66.88,54c.82-.16,1.62-.27,2.4-.36A90.85,90.85,0,0,1,41.79,58.61Zm17.46,1.86-3.39-1.28c1.35-.24,2.76-.52,4.21-.85Zm27-8.72a1,1,0,0,0,0,1.32A17.71,17.71,0,0,1,90,61.47c-5.7-2.47-9.46-8.89-9.5-9a1,1,0,0,0-.64-.47,35.26,35.26,0,0,0-13.33,0,148,148,0,0,1-20.89,2.14c-2.89-.17-5.23,1.75-6.27,5.15-.75,2.45.18,8.11.78,11.18A25.7,25.7,0,0,1,27.69,54.95a1,1,0,0,0-.34-.54L28.24,53a1,1,0,0,0,.15-.53V47.63a1,1,0,1,0-2,0v4.54l-1,1.55L25,53.61l.89-1.22a1,1,0,0,0,.19-.59V47.63a1,1,0,1,0-2,0v3.85L23,53l-.34-.1.71-.92a1,1,0,0,0,.21-.61V47.09a1,1,0,0,0-2,0v4l-1,1.29c-2.11-.58-4.56-1.21-7.07-1.79-4.4-1-7.93-1.93-9.93-2.46a6.64,6.64,0,0,1,1.1-.5,60.61,60.61,0,0,1,26.43-4.9,1,1,0,0,0,1.08-.91c.25-2.91,2.78-7.08,5.52-9.11a22.24,22.24,0,0,1,5.82-2.8c-.95,4.24.49,9,2.73,11.07s15.28,3,17.86,3.1h.16l5.54-.59.41,1.14a1,1,0,0,0,.61.61l8.75,3.1a1,1,0,0,0,1.28-.62c3-9,12.47-11.76,16.2-12.53C94.48,42.27,86.35,51.66,86.27,51.76Z"></path><ellipse cx="14.33" cy="48.02" rx="1.21" ry="2.27"></ellipse></svg>