<svg xmlns="http://www.w3.org/2000/svg" xmlns:xlink="http://www.w3.org/1999/xlink" version="1.1" x="0px" y="0px" viewBox="0 0 468 468" style="enable-background:new 0 0 468 468;" xml:space="preserve"><g><g><path d="M334.65,0.427c0,0-16.618,95.812-93.186,67.074C241.464,67.501,229.702-6.246,334.65,0.427z"></path></g><path d="M421.935,236.483c-1.799-67.454-54.979-122.179-122.8-122.179c-19.896,0-38.684,4.713-55.305,13.072   c-6.32,3.178-13.772,2.971-20.102-0.186c-16.478-8.217-35.071-12.857-54.751-12.885c-68.424-0.099-123.495,56.216-122.973,124.293   C46.768,338.41,101.451,468,168.795,468c19.953,0,38.791-4.74,55.447-13.143c6.128-3.092,13.317-3.092,19.446,0   C260.344,463.26,279.182,468,299.135,468C366.955,468,424.202,321.508,421.935,236.483z M154.088,391.16   c-5.969-7.886-14.969-21.904-23.944-43.902c-13.956-34.209-22.444-75.004-22.705-109.126l27.931-0.213   c0.234,30.766,7.95,67.701,20.638,98.804c7.834,19.201,15.394,31.047,20.356,37.602L154.088,391.16z"></path></g></svg>