<svg xmlns="http://www.w3.org/2000/svg" xmlns:xlink="http://www.w3.org/1999/xlink" version="1.1" x="0px" y="0px" viewBox="0 0 100 100" style="enable-background:new 0 0 100 100;" xml:space="preserve"><g><path d="M87.4,34.5c-1-2.4-3.3-4-6.5-4.9c-0.4-3.8-3.6-6.8-7.5-6.8c-3.8,0-7,2.9-7.5,6.6c-0.8,0.1-1.7,0.3-2.5,0.4   C60.9,17.5,55.9,9.5,50,9.5c-5.9,0-10.9,8-13.5,20.4c-0.8-0.2-1.6-0.3-2.4-0.4c-0.4-3.8-3.6-6.7-7.5-6.7c-3.9,0-7.1,3-7.5,6.8   c-3.4,0.9-5.6,2.5-6.6,4.9c-1.7,4,0.9,9.4,7.2,15.1c0.1,0.1,0.3,0.3,0.5,0.4c-0.2,0.1-0.3,0.3-0.5,0.4c-6.3,5.7-8.9,11.1-7.2,15.1   c1.5,3.7,6.3,5.7,13.5,5.7c0.7,0,1.5,0,2.2-0.1c2.6-0.1,5.3-0.5,8.2-1c2.6,12.4,7.5,20.4,13.5,20.4c2.3,0,4.4-1.2,6.3-3.3   c0.5,0.1,1.1,0.2,1.6,0.2c4.1,0,7.5-3.4,7.5-7.5c0-2.4-1.1-4.5-2.9-5.9c0.3-1.2,0.6-2.5,0.9-3.8c3.8,0.7,7.3,1.1,10.4,1.1   c7.1,0,12-1.9,13.6-5.7c1.8-4.3-1.2-9.9-7.6-15.5C86.2,44.4,89.2,38.8,87.4,34.5z M26.7,25.8c2.5,0,4.5,2,4.5,4.5s-2,4.5-4.5,4.5   s-4.5-2-4.5-4.5S24.2,25.8,26.7,25.8z M28.2,68.1c-6.9,0.4-11.7-1-12.8-3.7s1.3-7.1,6.4-11.7c0.3-0.2,0.5-0.5,0.8-0.7   c3.6,2.8,7.8,5.5,12.5,8c0.2,2.5,0.5,4.9,0.9,7.2C33.3,67.6,30.6,68,28.2,68.1z M34.8,56.4c-3.7-2-7-4.2-9.9-6.4   c2.9-2.2,6.2-4.4,9.9-6.4c-0.1,2.1-0.2,4.2-0.2,6.4C34.7,52.2,34.7,54.3,34.8,56.4z M35.1,40.1c-4.7,2.5-9,5.2-12.5,8   c-0.3-0.2-0.5-0.5-0.8-0.7c-5.1-4.6-7.5-9-6.4-11.7c0.6-1.3,2-2.3,4.1-3c1,3,3.8,5.2,7.2,5.2c3.4,0,6.3-2.3,7.2-5.4   c0.7,0.1,1.4,0.2,2.1,0.4C35.6,35.2,35.3,37.6,35.1,40.1z M61.7,38.4c-1.9-0.9-3.8-1.8-5.8-2.6c-0.4-0.2-0.9-0.3-1.3-0.5   c2.2-0.7,4.3-1.2,6.4-1.7C61.2,35.2,61.5,36.8,61.7,38.4z M50,12.5c4.6,0,8.3,7.8,10.4,18c-3.3,0.8-6.8,1.8-10.4,3.1   c-3.5-1.2-7-2.2-10.4-3C41.7,20.3,45.4,12.5,50,12.5z M39,33.5c2.1,0.5,4.3,1.1,6.5,1.7c-0.5,0.2-0.9,0.4-1.4,0.6   c-2,0.8-3.9,1.7-5.8,2.6C38.5,36.8,38.8,35.1,39,33.5z M37.7,50c0-2.7,0.1-5.4,0.3-8.1c2.3-1.2,4.8-2.3,7.3-3.3   c1.5-0.6,3.1-1.2,4.7-1.8c1.6,0.6,3.1,1.2,4.7,1.8c2.5,1,4.9,2.2,7.3,3.4c0.2,2.7,0.3,5.4,0.3,8c0,2.7-0.1,5.4-0.3,8   c-2.4,1.2-4.8,2.4-7.3,3.4c-1.6,0.7-3.2,1.2-4.7,1.8c-1.6-0.6-3.2-1.2-4.7-1.8c-2.5-1-5-2.2-7.3-3.3C37.8,55.4,37.7,52.7,37.7,50z    M61.7,61.6c-0.2,1.6-0.4,3.2-0.7,4.8c-2.1-0.5-4.3-1.1-6.4-1.7c0.4-0.2,0.9-0.3,1.3-0.5C57.9,63.3,59.8,62.5,61.7,61.6z    M38.3,61.6c1.9,0.9,3.8,1.8,5.8,2.6c0.5,0.2,0.9,0.4,1.4,0.6c-2.2,0.7-4.4,1.3-6.5,1.7C38.8,64.9,38.5,63.2,38.3,61.6z M50,87.5   c-4.6,0-8.3-7.8-10.4-18.1c3.4-0.8,6.8-1.8,10.4-3c3.6,1.3,7.1,2.3,10.4,3.1c-0.2,1.1-0.5,2.1-0.7,3.1c-0.6-0.1-1.2-0.2-1.8-0.2   c-4.1,0-7.5,3.4-7.5,7.5c0,2.5,1.2,4.7,3.1,6.1C52.4,86.9,51.2,87.5,50,87.5z M57.9,84.4c-2.5,0-4.5-2-4.5-4.5s2-4.5,4.5-4.5   s4.5,2,4.5,4.5S60.4,84.4,57.9,84.4z M73.4,25.8c2.5,0,4.5,2,4.5,4.5s-2,4.5-4.5,4.5s-4.5-2-4.5-4.5S70.9,25.8,73.4,25.8z    M84.6,64.3C82.9,68.6,74.3,69,64,67.1c0.4-2.3,0.7-4.6,0.9-7.1c4.8-2.5,9.1-5.2,12.6-8C82.9,56.6,86,61.1,84.6,64.3z M65.2,43.7   c3.6,2,6.9,4.1,9.8,6.3c-2.9,2.2-6.2,4.3-9.8,6.3c0.1-2.1,0.2-4.2,0.2-6.3C65.3,47.8,65.3,45.7,65.2,43.7z M77.5,48   c-3.5-2.7-7.7-5.4-12.6-8c-0.2-2.5-0.5-4.8-0.9-7.1c0.7-0.1,1.5-0.3,2.2-0.4c0.9,3.1,3.8,5.3,7.2,5.3c3.4,0,6.2-2.2,7.2-5.3   c2,0.6,3.5,1.6,4.1,3.1C86,38.9,82.9,43.4,77.5,48z"></path><path d="M57.5,50c0-4.1-3.4-7.5-7.5-7.5s-7.5,3.4-7.5,7.5s3.4,7.5,7.5,7.5S57.5,54.1,57.5,50z M45.5,50c0-2.5,2-4.5,4.5-4.5   s4.5,2,4.5,4.5s-2,4.5-4.5,4.5S45.5,52.5,45.5,50z"></path></g></svg>