<svg xmlns="http://www.w3.org/2000/svg" xmlns:xlink="http://www.w3.org/1999/xlink" version="1.1" x="0px" y="0px" viewBox="0 0 100 100" enable-background="new 0 0 100 100" xml:space="preserve"><g><path d="M78.6,86.5l-18-34.9V15.4c1.3-0.1,2.4-0.6,3.4-1.5c1-1,1.5-2.3,1.5-3.7c0-2.9-2.3-5.2-5.2-5.2H39.8c-1.4,0-2.7,0.5-3.7,1.5   c-1,1-1.5,2.3-1.5,3.7c0,2.8,2.2,5,4.9,5.2v36.3l-18,34.9c-0.9,1.8-0.9,3.9,0.2,5.7c1.1,1.7,2.9,2.8,5,2.8h46.8c2,0,3.9-1,5-2.8   C79.4,90.5,79.5,88.3,78.6,86.5z M76.1,90.9c-0.6,1-1.6,1.5-2.8,1.5H26.6c-1.1,0-2.2-0.6-2.7-1.5c-0.6-1-0.6-2.1-0.1-3.2l15.2-29.3   l0.6-1.2l2.5-4.9V12.8h-2.3c-1.4,0-2.6-1.2-2.6-2.6c0-0.7,0.3-1.3,0.8-1.8c0.5-0.5,1.1-0.8,1.8-0.8h20.5c1.4,0,2.6,1.2,2.6,2.6   c0,0.7-0.3,1.3-0.8,1.8c-0.5,0.5-1.1,0.8-1.8,0.8H58v39.5l2.5,4.9l0.6,1.2l15.2,29.3C76.8,88.7,76.7,89.9,76.1,90.9z"></path><path d="M60.3,59.7H39.7L24.9,88.3c-0.3,0.6-0.3,1.3,0.1,1.9c0.4,0.6,1,0.9,1.6,0.9h46.8c0.7,0,1.3-0.3,1.6-0.9   c0.3-0.6,0.4-1.3,0.1-1.9L60.3,59.7z"></path></g></svg>