<svg xmlns="http://www.w3.org/2000/svg" data-name="Layer 1" viewBox="0 0 100 100" x="0px" y="0px"><title>Vehicles</title><path d="M93.35,48.18a22.62,22.62,0,0,0-16-6.65H75.85l-11-16.27a7.92,7.92,0,0,0-6.49-3.59h-27a7.92,7.92,0,0,0-6.5,3.59L13,42.81A20,20,0,0,0,0,61.55v1.19a3.42,3.42,0,0,0,3.43,3.42H9.56a12.16,12.16,0,1,0,24.32,0H67.16a12.17,12.17,0,1,0,24.33,0h6.58A1.92,1.92,0,0,0,100,64.23,22.64,22.64,0,0,0,93.35,48.18ZM26.8,68.31A5.51,5.51,0,0,1,24.35,71a5.45,5.45,0,0,1-1,.42,5.5,5.5,0,0,1-3.28,0,5.45,5.45,0,0,1-1-.42,5.88,5.88,0,0,1-.88-.59,6.64,6.64,0,0,1-.75-.75,5.66,5.66,0,0,1-.82-1.36,5.53,5.53,0,0,1,.82-5.65,5.32,5.32,0,0,1,.75-.75,5.26,5.26,0,0,1,.88-.6,6.23,6.23,0,0,1,1-.41,5.5,5.5,0,0,1,3.28,0,6.23,6.23,0,0,1,1,.41A5.58,5.58,0,0,1,26.8,64a5.57,5.57,0,0,1,0,4.29ZM40.17,41.53H25.06L32.2,31h8Zm6.92,0V31H57.48l7.14,10.55ZM79.33,71.68a5.53,5.53,0,0,1-3.09-.94,5.86,5.86,0,0,1-1.49-1.49,4.25,4.25,0,0,1-.27-.46,5.5,5.5,0,0,1,0-5.26q.12-.22.27-.45a5.86,5.86,0,0,1,1.49-1.49,5.52,5.52,0,1,1,3.09,10.09Z"></path></svg>