<svg xmlns="http://www.w3.org/2000/svg" xmlns:xlink="http://www.w3.org/1999/xlink" version="1.1" x="0px" y="0px" viewBox="0 0 100 100" enable-background="new 0 0 100 100" xml:space="preserve"><g display="none"><rect x="-1013" y="-161" display="inline" fill="#000000" stroke="#000000" stroke-width="4" stroke-miterlimit="10" width="1274" height="331"></rect></g><g><path d="M50,25.98c-16.315,0-29.587,13.272-29.587,29.586S33.685,85.152,50,85.152c16.314,0,29.586-13.273,29.586-29.586   S66.314,25.98,50,25.98z M35.107,46.423c0-1.896,1.537-3.433,3.433-3.433c1.896,0,3.433,1.537,3.433,3.433   c0,1.896-1.537,3.433-3.433,3.433C36.644,49.856,35.107,48.319,35.107,46.423z M55.194,70.755   c-0.808,4.505-2.751,7.259-5.188,7.259c-2.445,0-4.393-2.757-5.201-7.267c-2.952-0.309-5.21-2.724-5.21-5.683h2.483   c0,1.798,1.463,3.262,3.261,3.262c1.889,0,3.352-1.463,3.352-3.262v-3.306v-1.243C45.455,60.132,43,58.359,43,56.233   c0-2.406,3.14-4.363,7-4.363s7,1.957,7,4.363c0,2.126-2.455,3.9-5.692,4.283v1.243v3.306c0,1.798,1.463,3.262,3.262,3.262   c1.888,0,3.351-1.463,3.351-3.262h2.483C60.404,68.05,58.108,70.481,55.194,70.755z M61.459,49.856   c-1.896,0-3.433-1.537-3.433-3.433c0-1.896,1.537-3.433,3.433-3.433c1.896,0,3.433,1.537,3.433,3.433   C64.892,48.319,63.355,49.856,61.459,49.856z"></path><path d="M50.003,68.503c-0.683,0.906-1.622,1.594-2.714,1.971c0.653,3.43,1.954,5.058,2.718,5.058c0.76,0,2.057-1.632,2.708-5.071   C51.617,70.08,50.683,69.397,50.003,68.503z"></path><path d="M36.628,25.067L14.945,14.848l2.726,32.698C20.174,37.461,27.283,29.18,36.628,25.067z"></path><path d="M82.328,47.548l2.726-32.7L63.371,25.067C72.717,29.18,79.826,37.462,82.328,47.548z"></path><path d="M7.054,75.937c-0.891,0.514-1.195,1.653-0.681,2.543c0.344,0.598,0.971,0.932,1.614,0.932c0.316,0,0.636-0.081,0.93-0.25   l12.196-7.042c-0.618-1.075-1.181-2.185-1.679-3.33L7.054,75.937z"></path><path d="M8.916,45.212c-0.89-0.514-2.029-0.21-2.543,0.681c-0.514,0.89-0.21,2.029,0.681,2.543l9.674,5.585   c0.063-1.372,0.214-2.722,0.439-4.046L8.916,45.212z"></path><path d="M6.862,60.325C5.834,60.325,5,61.158,5,62.187c0,1.029,0.834,1.862,1.862,1.862h10.925   c-0.32-1.216-0.571-2.459-0.753-3.724H6.862z"></path><path d="M91.084,79.161c0.293,0.17,0.613,0.25,0.93,0.25c0.643,0,1.269-0.335,1.614-0.932c0.514-0.89,0.21-2.029-0.681-2.543   l-12.38-7.148c-0.498,1.146-1.061,2.256-1.679,3.33L91.084,79.161z"></path><path d="M92.946,48.437c0.891-0.514,1.195-1.653,0.681-2.543c-0.513-0.892-1.655-1.195-2.543-0.681l-8.253,4.765   c0.225,1.325,0.376,2.674,0.439,4.046L92.946,48.437z"></path><path d="M93.138,60.325H82.965c-0.182,1.265-0.433,2.508-0.753,3.724h10.926c1.028,0,1.862-0.833,1.862-1.862   C95,61.158,94.166,60.325,93.138,60.325z"></path></g></svg>