<svg xmlns="http://www.w3.org/2000/svg" xmlns:xlink="http://www.w3.org/1999/xlink" version="1.1" x="0px" y="0px" viewBox="0 0 496 496" style="enable-background:new 0 0 496 496;" xml:space="preserve"><g><circle cx="120" cy="40" r="8"></circle><path d="M480.17,370.435l-76.55-90.059C373.166,244.548,328.731,224,281.709,224H160.837C116.264,224,80,187.736,80,143.163   c0-17.429,5.727-34.531,16.154-48.461c3.12,0.843,6.381,1.298,9.727,1.298l60.607,0C180.556,96,192,84.539,192,70.452v-0.294   c0-5.88-2.107-11.576-5.934-16.04l-27.554-32.146C146.544,8.009,129.134,0.001,110.745,0c-0.002,0-0.002,0-0.004,0   C93.94,0,78.143,6.543,66.26,18.426C45.146,39.54,28.647,64.233,17.221,91.819C5.794,119.406,0,148.533,0,178.392V208   c0,36.924,9.802,73.195,28.347,104.892c1.183,2.022,2.404,4.019,3.653,5.997v34.661c0,12.668-4.358,25.092-12.271,34.983   l-7.246,9.058C4.433,407.652,0,420.29,0,433.175c0,11.283,3.308,22.21,9.567,31.598l2.308,3.462   C16.786,475.602,25.004,480,33.859,480c5.679,0,11.309-1.877,15.853-5.284L70.4,459.2c6.011-4.509,9.6-11.687,9.6-19.2v-14.111   c0-3.05,1.694-5.791,4.423-7.155c8.761-4.381,16.571-10.331,23.092-17.512c2.954,8.846,4.485,18.151,4.485,27.623v12.126   c0,2.396-0.933,4.648-2.627,6.343l-6.059,6.059C98.598,458.089,96,464.359,96,471.029C96,484.798,107.202,496,120.971,496H168   c13.233,0,24-10.767,24-24v-56.631c5.32,0.404,10.671,0.631,16,0.631h95.056c0.626,4.229,0.944,8.52,0.944,12.845V432h-48   c-17.645,0-32,14.355-32,32c0,8.822,7.178,16,16,16h49.673c3.612,9.349,12.69,16,23.297,16H360c10.429,0,19.321-6.689,22.624-16   h46.879C466.169,480,496,450.169,496,413.502C496,397.741,490.378,382.446,480.17,370.435z M77.268,404.423   C69.084,408.514,64,416.739,64,425.889V440c0,2.505-1.196,4.897-3.2,6.399l-20.688,15.516C38.32,463.26,36.1,464,33.859,464   c-3.493,0-6.734-1.734-8.672-4.641l-2.308-3.462c-4.5-6.751-6.879-14.608-6.879-22.723c0-9.266,3.188-18.354,8.977-25.589   l7.246-9.058C42.397,385.811,48,369.837,48,353.55v-12.664c14.623,17.582,32.103,32.717,51.683,44.688   C93.812,393.516,86.152,399.979,77.268,404.423z M256,448h44.686l-5.372,5.372c-3.009,3.01-5.151,6.653-6.311,10.628H240   C240,455.178,247.178,448,256,448z M384,416h40c4.411,0,8,3.589,8,8s-3.589,8-8,8h-40V416z M429.502,464H384v-16h40   c13.233,0,24-10.767,24-24s-10.767-24-24-24h-39.972c0.279-9.836,2.728-19.624,7.127-28.422l-14.311-7.156   C371.059,375.994,368,388.95,368,401.889V472c0,4.411-3.589,8-8,8h-47.029c-4.946,0-8.971-4.024-8.971-8.971   c0-2.396,0.933-4.648,2.627-6.343l6.059-6.059c4.716-4.717,7.314-10.987,7.314-17.657v-12.126c0-20.454-5.997-40.263-17.344-57.282   C293.068,357.18,288,340.44,288,323.155V320h-16v3.155c0,20.454,5.997,40.263,17.344,57.282c4.092,6.138,7.352,12.707,9.755,19.563   H208c-5.313,0-10.649-0.234-15.945-0.669c0.369-9.61,2.8-19.154,7.1-27.753l-14.311-7.156C179.059,375.994,176,388.95,176,401.889   V472c0,4.411-3.589,8-8,8h-47.029c-4.946,0-8.971-4.024-8.971-8.971c0-2.396,0.933-4.648,2.627-6.343l6.059-6.059   c4.716-4.717,7.314-10.987,7.314-17.657v-12.126c0-20.454-5.997-40.263-17.344-57.282C101.068,357.18,96,340.44,96,323.155V320H80   v3.155c0,11.119,1.786,22.042,5.226,32.436C41.923,319.416,16,265.251,16,208v-29.608c0-56.153,21.867-108.946,61.576-148.655   C86.436,20.878,98.213,16,110.741,16c0,0,0.002,0,0.003,0c13.713,0.001,26.696,5.973,35.62,16.384l27.555,32.146   c1.342,1.566,2.082,3.564,2.082,5.627v0.294c0,5.265-4.267,9.549-9.511,9.549l-60.607,0c-7.98,0-15.155-4.437-18.726-11.578   l-14.311,7.155c2.262,4.523,5.354,8.419,9.027,11.57C70.323,103.451,64,123.125,64,143.163C64,196.559,107.441,240,160.837,240   h120.872c42.32,0,82.311,18.493,109.719,50.739l76.55,90.058C475.73,389.918,480,401.533,480,413.502   C480,441.347,457.347,464,429.502,464z"></path></g></svg>